HIERARCHY
ROOT Hips
{
	OFFSET 0.00000 0.00000 0.00000
	CHANNELS 6 Xposition Yposition Zposition Zrotation Yrotation Xrotation 
	JOINT LHipJoint
	{
		OFFSET 0 0 0
		CHANNELS 3 Zrotation Yrotation Xrotation
		JOINT LeftHip
		{
			OFFSET 1.64577 -1.42384 0.94276
			CHANNELS 3 Zrotation Yrotation Xrotation
			JOINT LeftKnee
			{
				OFFSET 2.11538 -5.81197 0.00000
				CHANNELS 3 Zrotation Yrotation Xrotation
				JOINT LeftAnkle
				{
					OFFSET 2.36541 -6.49893 0.00000
					CHANNELS 3 Zrotation Yrotation Xrotation
					JOINT LeftToe
					{
						OFFSET 0.17759 -0.48793 1.73865
						CHANNELS 3 Zrotation Yrotation Xrotation
						End Site
						{
							OFFSET 0.00000 -0.00000 0.91205
						}
					}
				}
			}
		}
	}
	JOINT RHipJoint
	{
		OFFSET 0 0 0
		CHANNELS 3 Zrotation Yrotation Xrotation
		JOINT RightHip
		{
			OFFSET -1.43750 -1.42384 0.94276
			CHANNELS 3 Zrotation Yrotation Xrotation
			JOINT RightKnee
			{
				OFFSET -2.10480 -5.78291 0.00000
				CHANNELS 3 Zrotation Yrotation Xrotation
				JOINT RightAnkle
				{
					OFFSET -2.34880 -6.45329 0.00000
					CHANNELS 3 Zrotation Yrotation Xrotation
					JOINT RightToe
					{
						OFFSET -0.22842 -0.62757 1.80469
						CHANNELS 3 Zrotation Yrotation Xrotation
						End Site
						{
							OFFSET -0.00000 -0.00000 0.95886
						}
					}
				}
			}
		}
	}
	JOINT lowerback
	{
		OFFSET 0 0 0
		CHANNELS 3 Zrotation Yrotation Xrotation
		JOINT Chest
		{
			OFFSET 0.06217 1.93758 -0.49272
			CHANNELS 3 Zrotation Yrotation Xrotation
			JOINT Chest2
			{
				OFFSET -0.03114 2.03621 -0.05830
				CHANNELS 3 Zrotation Yrotation Xrotation
				JOINT lowerneck
				{
					OFFSET 0 0 0
					CHANNELS 3 Zrotation Yrotation Xrotation
					JOINT Neck
					{
						OFFSET 0.04421 1.41010 0.26562
						CHANNELS 3 Zrotation Yrotation Xrotation
						JOINT Head
						{
							OFFSET -0.13407 1.43847 0.06181
							CHANNELS 3 Zrotation Yrotation Xrotation
							End Site
							{
								OFFSET -0.04980 1.45844 -0.00689
							}
						}
					}
				}
				JOINT LeftCollar
				{
					OFFSET 0 0 0
					CHANNELS 3 Zrotation Yrotation Xrotation
					JOINT LeftShoulder
					{
						OFFSET 2.18382 1.47753 -0.35694
CHANNELS 3 Zrotation Xrotation Yrotation
						JOINT LeftElbow
						{
OFFSET 0 -5.054600 0.000000
CHANNELS 3 Zrotation Xrotation Yrotation
							JOINT LeftWrist
							{
OFFSET 0 -3.390130 0.000000
CHANNELS 3 Zrotation Xrotation Yrotation
								JOINT lhand
								{
									OFFSET 0 0 0
CHANNELS 3 Zrotation Xrotation Yrotation
									JOINT LFingers
									{
OFFSET 0 -0.572420 -0.000000
CHANNELS 3 Zrotation Xrotation Yrotation
										End Site
										{
OFFSET 0 -0.461500 -0.000000
										}
									}
								}
								JOINT LThumb
								{
OFFSET 0 0.000000 0.000000
CHANNELS 3 Zrotation Xrotation Yrotation
									End Site
									{
OFFSET 0 -0.468550 0.468550
									}
								}
							}
						}
					}
				}
				JOINT RightCollar
				{
					OFFSET 0 0 0
					CHANNELS 3 Zrotation Yrotation Xrotation
					JOINT RightShoulder
					{
						OFFSET -2.06033 1.72839 -0.47437
CHANNELS 3 Zrotation Xrotation Yrotation
						JOINT RightElbow
						{
OFFSET 0 -5.070100 0.000000
CHANNELS 3 Zrotation Xrotation Yrotation
							JOINT RightWrist
							{
OFFSET 0 -3.149570 -0.000000
CHANNELS 3 Zrotation Xrotation Yrotation
								JOINT rhand
								{
									OFFSET 0 0 0
CHANNELS 3 Zrotation Xrotation Yrotation
									JOINT RFingers
									{
OFFSET 0 -0.718190 -0.000000
CHANNELS 3 Zrotation Xrotation Yrotation
										End Site
										{
OFFSET 0 -0.579020 -0.000000
										}
									}
								}
								JOINT RThumb
								{
OFFSET 0 0.000000 0.000000
CHANNELS 3 Zrotation Xrotation Yrotation
									End Site
									{
OFFSET 0 -0.587860 0.587860
									}
								}
							}
						}
					}
				}
			}
		}
	}
}
MOTION
Frames: 16
Frame Time: .0083333
31.8747 15.2136 1.0765 22.4947 94.9801 17.5197 0.0000 0.0000 0.0000 -17.0416 -19.3046 -11.7945 4.2320 12.4629 37.3898 0.7498 4.9742 -18.9070 0.2629 -3.2986 -9.1112 0.0000 0.0000 0.0000 25.2964 15.5192 -11.4569 -3.9967 -12.1561 36.2863 -0.2172 -16.9659 -25.9317 -0.9073 6.0700 -16.9876 -0.7729 -0.3464 13.9728 -1.1766 -0.1356 7.5373 -0.7711 0.1154 0.0999 8.2686 11.4121 -7.8257 -9.9510 15.0157 2.6424 -3.3635 7.2513 3.4248 0.0000 0.0000 0.0000 8.7173 6.9793 -28.4761 77.2965 -59.3813 49.0213 24.0012 -24.6327 -3.7902 0.0 0.0 0.0 -7.1250 0.0 0.0 -2.1609 34.1215 -0.5771 0.0000 0.0000 0.0000 -16.3199 24.9996 44.9334 -76.7776 -59.329 -48.5749 -35.7304 -44.4383 -10.0705 0.0 0.0 0.0 7.1250 0.0 -0.0 -6.1054 17.6815 -3.9854
32.0125 15.2354 1.1121 19.3680 95.1808 14.8523 0.0000 0.0000 0.0000 -17.2829 -19.8506 -11.0410 4.0904 12.2797 36.7289 0.7651 5.3266 -19.2991 0.2602 -3.2820 -9.0648 0.0000 0.0000 0.0000 25.5389 16.0844 -10.6685 -3.8776 -11.9957 35.7166 -0.3053 -17.4877 -27.2923 -0.7932 5.6851 -15.8734 -0.8614 -0.3590 13.5521 -1.2153 -0.1809 7.3383 -0.7550 0.0819 0.1139 9.5789 11.8303 -6.7222 -11.4207 15.5898 1.8836 -4.0057 7.5520 3.2980 -0.0000 -0.0000 0.0000 8.8045 7.5602 -27.9708 74.3534 -59.0544 46.4927 23.2181 -23.7703 -4.1235 0.0 0.0 0.0 -7.1250 0.0 0.0 -2.8242 34.4547 -0.7317 -0.0000 -0.0000 0.0000 -16.2241 25.1377 44.6756 -76.2476 -59.2732 -48.1191 -36.0346 -44.2905 -9.4173 0.0 0.0 0.0 7.1250 0.0 -0.0 -6.4013 18.4303 -4.0747
32.1489 15.2591 1.1447 16.2393 95.4055 12.1747 0.0000 0.0000 0.0000 -17.5435 -20.3375 -10.4107 3.9865 12.1424 36.2374 0.7943 5.5278 -19.7287 0.2251 -3.0538 -8.4287 0.0000 0.0000 0.0000 25.6371 16.2866 -10.1490 -3.7917 -11.8779 35.3015 -0.4193 -17.6683 -28.3707 -0.7055 5.3686 -14.9629 -1.0064 -0.3296 12.9921 -1.1292 -0.1627 7.2727 -0.5856 0.0789 0.3449 9.7194 12.0905 -6.9514 -11.7632 15.9510 2.0387 -4.0708 7.7127 3.4598 -0.0000 0.0000 0.0000 8.7367 7.8376 -27.5553 70.6684 -58.5397 43.3404 22.6652 -22.7518 -4.3775 0.0 0.0 0.0 -7.1250 0.0 0.0 -3.2970 34.7072 -0.8343 -0.0000 0.0000 0.0000 -16.2453 25.0241 44.1749 -75.3298 -59.171 -47.3306 -36.1338 -44.1271 -8.9251 0.0 0.0 0.0 7.1250 0.0 -0.0 -6.5343 19.015 -4.0753
32.2748 15.2807 1.1742 14.3293 95.5802 10.7357 0.0000 0.0000 0.0000 -17.6387 -20.7092 -10.0004 3.8987 12.0243 35.8181 0.8262 5.5864 -20.0820 0.1809 -2.7397 -7.5549 0.0000 0.0000 0.0000 25.7260 16.4127 -9.8302 -3.7273 -11.7884 34.9876 -0.5128 -17.7148 -29.0996 -0.6541 5.1730 -14.4028 -0.9671 -0.2696 12.4828 -1.0511 -0.0907 7.1314 -0.5348 0.1063 0.4689 10.1124 12.4168 -6.7303 -12.3142 16.4184 2.0224 -4.2511 7.9399 3.5507 0.0000 -0.0000 0.0000 8.7474 8.0915 -27.1418 66.2887 -57.7652 39.6194 22.2031 -21.8241 -4.3805 0.0 0.0 0.0 -7.1250 0.0 0.0 -3.6786 34.6911 -0.9326 0.0000 -0.0000 0.0000 -16.1599 25.0314 43.6023 -74.2582 -59.0426 -46.411 -36.1892 -44.1417 -8.7424 0.0 0.0 0.0 7.1250 0.0 -0.0 -6.5966 19.2301 -4.0829
32.3845 15.2974 1.2049 12.6172 95.6325 9.4522 0.0000 0.0000 0.0000 -17.6930 -20.9177 -9.6660 3.8214 11.9189 35.4458 0.8532 5.6094 -20.3579 0.1568 -2.5518 -7.0334 0.0000 0.0000 0.0000 25.7949 16.6375 -9.5634 -3.6770 -11.7177 34.7406 -0.5642 -17.8077 -29.5681 -0.6209 5.0427 -14.0303 -0.8854 -0.1327 12.1671 -1.0339 0.0846 6.9650 -0.5826 0.1891 0.4639 11.0820 12.8821 -5.7987 -13.4934 17.0949 1.4914 -4.7290 8.2967 3.5105 0.0000 -0.0000 0.0000 8.9106 8.176 -26.8146 61.3589 -56.6613 35.4741 21.9626 -21.1017 -4.6187 0.0 0.0 0.0 -7.1250 0.0 0.0 -3.8954 34.9371 -0.9644 0.0000 -0.0000 0.0000 -15.567 25.1407 42.4449 -74.4385 -59.0649 -46.5657 -36.1476 -43.5789 -8.0897 0.0 0.0 0.0 7.1250 0.0 -0.0 -6.6503 20.0298 -3.997
32.4867 15.3107 1.2328 10.2010 95.5268 7.3045 0.0000 0.0000 0.0000 -17.9092 -21.0926 -9.2462 3.7723 11.8510 35.2070 0.8897 5.7160 -20.7748 0.1502 -2.4975 -6.8826 0.0000 0.0000 0.0000 25.7814 16.7229 -9.2032 -3.6246 -11.6434 34.4817 -0.5875 -17.8772 -29.8088 -0.6164 5.0247 -13.9790 -0.1719 0.2147 12.0377 -1.4491 0.6085 6.8715 -1.4741 0.4776 0.4487 11.8454 12.3557 -4.7321 -14.8290 16.3812 -0.0396 -5.4159 8.0011 2.9867 0.0000 -0.0000 0.0000 9.906 7.9683 -27.2308 56.1659 -55.1985 31.1712 21.8646 -20.3804 -5.5023 0.0 0.0 0.0 -7.1250 0.0 0.0 -4.0499 35.8811 -0.9096 0.0000 -0.0000 0.0000 -14.0818 25.371 40.7728 -74.1592 -59.0303 -46.3261 -36.2893 -43.0292 -7.2656 0.0 0.0 0.0 7.1250 0.0 -0.0 -6.8536 21.0191 -3.9673
32.5812 15.3224 1.2585 10.0718 95.3262 7.5438 0.0000 0.0000 0.0000 -17.8343 -21.2896 -9.0537 3.7222 11.7812 34.9624 0.9165 5.9357 -21.1724 0.1466 -2.4677 -6.8000 0.0000 0.0000 0.0000 25.9534 16.8402 -9.0226 -3.5781 -11.5768 34.2508 -0.6023 -17.9553 -30.0001 -0.6398 5.1174 -14.2437 0.0904 0.4707 11.7749 -1.4388 0.9626 6.7695 -1.6475 0.6568 0.4960 12.5589 12.9516 -4.2412 -15.5609 17.2286 -0.2087 -5.6741 8.4345 3.1009 -0.0000 0.0000 0.0000 10.0317 7.8107 -26.823 50.8404 -53.3289 26.8468 21.8822 -19.4075 -6.0273 0.0 0.0 0.0 -7.1250 0.0 0.0 -4.0824 36.4452 -0.8606 -0.0000 0.0000 0.0000 -13.7187 25.3447 40.0482 -73.6322 -58.9631 -45.8745 -36.4719 -42.6957 -6.643 0.0 0.0 0.0 7.1250 0.0 -0.0 -7.0610 21.7622 -3.9694
32.6620 15.3333 1.2871 16.0422 95.1469 14.0294 0.0000 0.0000 0.0000 -17.0429 -21.3358 -9.1680 3.6777 11.7187 34.7439 0.9372 6.0880 -21.4658 0.1401 -2.4124 -6.6468 0.0000 0.0000 0.0000 26.7174 17.3779 -8.9439 -3.5287 -11.5054 34.0039 -0.5966 -18.2739 -30.3275 -0.6803 5.2735 -14.6904 0.7547 0.6875 11.5034 -1.2832 1.2839 6.4575 -1.8934 0.8175 0.3358 13.6007 13.6966 -3.0920 -16.4103 18.3333 -0.5301 -6.0255 9.0247 3.1552 -0.0000 0.0000 0.0000 10.169 7.851 -26.1873 45.4950 -51.0087 22.6228 21.9392 -18.4015 -5.7589 0.0 0.0 0.0 -7.1250 0.0 0.0 -4.0102 36.1604 -0.8732 -0.0000 0.0000 0.0000 -13.4554 25.5145 39.6377 -72.9894 -58.8779 -45.3239 -36.6659 -42.7506 -6.7163 0.0 0.0 0.0 7.1250 0.0 -0.0 -7.1911 21.6527 -4.0617
32.7644 15.3444 1.3060 10.8140 95.0797 8.8531 0.0000 0.0000 0.0000 -17.7592 -21.3833 -8.3221 3.6169 11.6323 34.4434 0.9695 6.3502 -21.9357 0.1489 -2.4864 -6.8520 0.0000 0.0000 0.0000 26.4667 17.3336 -8.3299 -3.4888 -11.4471 33.8031 -0.7251 -18.1319 -31.0175 -0.6672 5.2236 -14.5475 0.5966 0.8203 11.2275 -1.3988 1.4360 6.3777 -1.9351 0.8885 0.4068 14.6649 14.4748 -1.7574 -17.1894 19.5251 -0.8430 -6.3554 9.6692 3.2108 -0.0000 -0.0000 0.0000 10.2546 7.9132 -25.2728 40.5587 -48.3974 18.8559 21.7578 -17.1296 -5.136 0.0 0.0 0.0 -7.1250 0.0 0.0 -4.1074 35.4829 -0.9625 -0.0000 -0.0000 0.0000 -13.2484 25.7129 39.3135 -72.4012 -58.7968 -44.8206 -36.7134 -42.8245 -6.9121 0.0 0.0 0.0 7.1250 0.0 -0.0 -7.2006 21.4074 -4.1075
32.8588 15.3535 1.3249 6.1888 95.0452 4.3804 0.0000 0.0000 0.0000 -18.3389 -21.5105 -7.6817 3.5591 11.5494 34.1560 0.9868 6.7091 -22.3381 0.1661 -2.6253 -7.2373 0.0000 0.0000 0.0000 26.2397 17.4615 -7.8528 -3.4524 -11.3936 33.6192 -0.8700 -17.9345 -31.7308 -0.5976 4.9490 -13.7631 0.6165 1.0762 10.8250 -1.4845 1.7785 6.4395 -2.0578 1.0649 0.7063 15.3413 15.2018 -0.9806 -17.7158 20.6053 -1.0641 -6.5206 10.2377 3.3177 0.0000 -0.0000 0.0000 10.2806 7.466 -24.3817 36.0889 -45.5742 15.5859 21.8434 -14.723 -6.0127 0.0 0.0 0.0 -7.1250 0.0 0.0 -4.1135 36.4273 -0.869 0.0000 -0.0000 0.0000 -12.8725 25.6106 38.5154 -71.4919 -58.6653 -44.0433 -36.6129 -42.8225 -7.0091 0.0 0.0 0.0 7.1250 0.0 -0.0 -7.1165 21.2989 -4.0764
32.9405 15.3598 1.3440 3.5780 94.9890 2.0010 0.0000 0.0000 0.0000 -18.6233 -21.6645 -7.2309 3.4862 11.4434 33.7903 0.9970 7.0096 -22.6396 0.1708 -2.6623 -7.3399 0.0000 0.0000 0.0000 26.1923 17.6237 -7.5556 -3.4282 -11.3579 33.4965 -0.9525 -17.9200 -32.2306 -0.5774 4.8658 -13.5263 0.6448 1.2368 10.4630 -1.5451 1.9843 6.3572 -2.1464 1.1662 0.8285 16.4053 15.9186 0.5416 -18.5031 21.7396 -1.7487 -6.8741 10.8764 3.2647 -0.0000 0.0000 0.0000 10.3309 7.2562 -23.0212 31.9951 -42.5432 12.7375 21.7923 -12.1847 -6.7019 0.0 0.0 0.0 -7.1250 0.0 0.0 -4.2228 37.163 -0.8161 -0.0000 0.0000 0.0000 -12.7244 25.4609 38.2743 -70.1373 -58.4555 -42.8876 -36.6067 -43.0975 -7.3785 0.0 0.0 0.0 7.1250 0.0 -0.0 -7.0656 20.8466 -4.1196
33.0106 15.3630 1.3631 2.8555 94.8610 1.4318 0.0000 0.0000 0.0000 -18.7247 -21.8452 -6.7666 3.4274 11.3567 33.4924 1.0125 7.2911 -22.9750 0.1735 -2.6830 -7.3974 0.0000 0.0000 0.0000 26.3827 17.8675 -7.1766 -3.4005 -11.3167 33.3556 -1.0071 -18.0428 -32.6943 -0.5596 4.7914 -13.3147 0.9658 1.5389 10.3060 -1.5831 2.4061 6.2993 -2.4003 1.3850 0.8870 16.8518 16.4294 1.7078 -18.7398 22.5213 -2.4678 -7.0138 11.3288 3.0764 0.0000 -0.0000 0.0000 10.5973 6.7195 -22.0245 28.0781 -39.1881 10.173 21.9689 -9.4728 -7.0463 0.0 0.0 0.0 -7.1250 0.0 0.0 -4.1079 37.5432 -0.7555 0.0000 -0.0000 0.0000 -12.199 25.4312 37.3842 -69.1841 -58.2977 -42.0759 -36.643 -43.4824 -7.8812 0.0 0.0 0.0 7.1250 0.0 -0.0 -7.0270 20.2265 -4.1955
33.0775 15.3670 1.3810 2.6793 94.7819 1.4218 0.0000 0.0000 0.0000 -18.7804 -22.1187 -6.3411 3.3830 11.2906 33.2663 1.0320 7.5911 -23.3595 0.1743 -2.6893 -7.4150 0.0000 0.0000 0.0000 26.6434 18.3351 -6.7223 -3.3664 -11.2658 33.1817 -1.0882 -18.2080 -33.3511 -0.4928 4.5011 -12.4908 1.1588 1.6936 10.0648 -1.6135 2.6123 6.1422 -2.5524 1.4871 0.8748 16.3026 16.8926 2.6791 -17.5984 23.1130 -3.1961 -6.6700 11.6677 2.5888 0.0000 0.0000 0.0000 10.8101 6.576 -20.3646 24.6967 -35.8923 8.1114 22.2959 -6.5122 -6.8483 0.0 0.0 0.0 -7.1250 0.0 0.0 -3.8107 37.3514 -0.7185 0.0000 0.0000 0.0000 -11.8166 25.5504 36.8996 -68.5248 -58.1836 -41.5154 -36.568 -43.595 -7.9509 0.0 0.0 0.0 7.1250 0.0 -0.0 -6.9650 20.1499 -4.17
33.1494 15.3670 1.3952 1.6268 94.8402 0.4854 0.0000 0.0000 0.0000 -18.9690 -22.4667 -5.8458 3.3401 11.2263 33.0469 1.0715 7.7676 -23.8176 0.1595 -2.5736 -7.0937 0.0000 0.0000 0.0000 26.8356 18.7777 -6.1493 -3.3363 -11.2205 33.0273 -1.2783 -18.1216 -34.3668 -0.3768 3.9424 -10.9147 1.4496 2.0222 9.7445 -1.5187 3.0670 6.1535 -2.6406 1.7222 1.0960 16.2238 17.2120 3.2911 -17.3922 23.5819 -3.4824 -6.6132 11.9287 2.4448 -0.0000 0.0000 0.0000 10.8095 6.0104 -19.041 21.6715 -32.6038 6.4079 22.3552 -3.2402 -6.6163 0.0 0.0 0.0 -7.1250 0.0 0.0 -3.7383 37.1055 -0.7274 -0.0000 0.0000 0.0000 -11.0482 25.8038 35.0894 -68.8490 -58.2402 -41.7909 -36.2651 -43.0713 -7.4192 0.0 0.0 0.0 7.1250 0.0 -0.0 -6.8173 20.8341 -3.9747
33.2190 15.3613 1.4069 2.3748 94.9695 1.2583 0.0000 0.0000 0.0000 -19.0246 -22.8282 -5.2922 3.2961 11.1596 32.8201 1.1445 7.9230 -24.5231 0.1691 -2.6491 -7.3033 0.0000 0.0000 0.0000 27.1481 18.8743 -5.6360 -3.3151 -11.1885 32.9183 -1.4586 -17.9077 -35.1692 -0.3116 3.5886 -9.9220 1.7236 2.1524 9.4318 -1.4002 3.2545 6.1684 -2.6702 1.8226 1.3015 16.5715 17.5444 3.8870 -17.3835 24.1201 -3.4887 -6.6339 12.2157 2.4732 0.0000 -0.0000 0.0000 10.7329 5.671 -16.8441 19.0991 -29.5416 5.0796 22.0774 0.3686 -6.7275 0.0 0.0 0.0 -7.1250 0.0 0.0 -3.9841 37.208 -0.7654 0.0000 -0.0000 0.0000 -10.8135 25.8376 34.3179 -68.4743 -58.1747 -41.4724 -36.2239 -43.1297 -7.0708 0.0 0.0 0.0 7.1250 0.0 -0.0 -6.8309 21.264 -3.9159
33.2829 15.3609 1.4185 0.1059 95.1714 -0.9172 0.0000 0.0000 0.0000 -19.3618 -23.1078 -4.8009 3.2524 11.0928 32.5936 1.1860 8.0585 -24.9499 0.1639 -2.6086 -7.1910 0.0000 0.0000 0.0000 27.0627 18.7547 -5.3951 -3.3071 -11.1763 32.8767 -1.4791 -18.0047 -35.3736 -0.3548 3.8271 -10.5907 1.6247 2.1995 9.0498 -1.3681 3.3007 6.1489 -2.5662 1.8416 1.4848 16.7566 17.7628 4.3008 -17.0437 24.4721 -3.3756 -6.5496 12.3968 2.4713 0.0000 0.0000 0.0000 10.6366 5.4946 -14.0819 16.9608 -26.8061 4.0697 21.8462 4.2288 -6.8703 0.0 0.0 0.0 -7.1250 0.0 0.0 -4.1941 37.3467 -0.7916 0.0000 0.0000 0.0000 -10.8812 25.7036 34.1494 -67.6795 -58.0312 -40.7976 -36.3355 -43.2634 -6.4637 0.0 0.0 0.0 7.1250 0.0 -0.0 -6.9848 21.9951 -3.8887
